# xmcd
#
# Track frame offsets: 
#        150
#        15232
#        34052
#        49700
#        62047
#        80680
#        95047
#        112460
#        126402
#        141537
#        160952
#        177815
#        192347
#        209672
#        228492
#        241915
#        258260
#        277522
#        293967
#        309157
#
# Disc length: 4328 seconds
#
# Revision: 0
# Processed by: cddbd v1.5.1PL2 Copyright (c) Steve Scherf et al.
# Submitted via: ExactAudioCopy v0.95b4
#
DISCID=2510e614
DTITLE=The Morris Brothers - Bluegrass Gospel Jewels
DYEAR=2002
DGENRE=Bluegrass
TTITLE0=Love Held Jesus To The Cross
TTITLE1=What Would You Give In Exchange
TTITLE2=Just Over In The Glory Land
TTITLE3=Building A Mansion
TTITLE4=Mother's Only Sleeping
TTITLE5=Chapel In The Hills
TTITLE6=Give Me My Flowers While I'm Living
TTITLE7=Wispering Hope
TTITLE8=Satan's Jewel Crown
TTITLE9=Tramp On The Street
TTITLE10=The Family Who Prays
TTITLE11=Where The Soul Never Dies
TTITLE12=White Dove
TTITLE13=Beautiful Star Of Bethlehem
TTITLE14=The Glory Land Way
TTITLE15=If We Never Tell
TTITLE16=The Sweetest Gift
TTITLE17=When I Lay My Burden Down
TTITLE18=Special Angel
TTITLE19=He Wispers Sweet Peace
EXTD=
EXTT0=
EXTT1=
EXTT2=
EXTT3=
EXTT4=
EXTT5=
EXTT6=
EXTT7=
EXTT8=
EXTT9=
EXTT10=
EXTT11=
EXTT12=
EXTT13=
EXTT14=
EXTT15=
EXTT16=
EXTT17=
EXTT18=
EXTT19=
PLAYORDER=
